#N canvas -7 0 639 628 12;
#N canvas 0 50 450 250 (subpatch) 0;
#X array Harmonics 16 float 2;
#X coords 0 100 16 0 450 120 2 0 0;
#X restore 69 457 graph;
#X obj 416 34 loadbang;
#X obj 26 545 bng 30 250 50 0 empty empty empty 17 7 0 10 -262144 -1
-1;
#X obj 29 33 inlet;
#X obj 29 64 bng 15 250 50 0 empty empty empty 17 7 0 10 -262144 -1
-1;
#X obj 201 337 outlet;
#X obj 247 337 outlet;
#X obj 293 337 outlet;
#X obj 339 337 outlet;
#X obj 386 337 outlet;
#X obj 432 337 outlet;
#X obj 480 337 outlet;
#X obj 527 337 outlet;
#X obj 223 371 outlet;
#X obj 269 371 outlet;
#X obj 315 371 outlet;
#X obj 361 371 outlet;
#X obj 408 371 outlet;
#X obj 454 371 outlet;
#X obj 502 371 outlet;
#X obj 549 371 outlet;
#X obj 29 123 tabread Harmonics;
#X msg 29 99 0;
#X obj 141 123 tabread Harmonics;
#X obj 252 123 tabread Harmonics;
#X obj 364 123 tabread Harmonics;
#X msg 141 99 1;
#X msg 252 99 2;
#X msg 364 99 3;
#X obj 48 181 tabread Harmonics;
#X obj 160 181 tabread Harmonics;
#X obj 271 181 tabread Harmonics;
#X obj 383 181 tabread Harmonics;
#X obj 67 239 tabread Harmonics;
#X obj 179 239 tabread Harmonics;
#X obj 290 239 tabread Harmonics;
#X obj 402 239 tabread Harmonics;
#X obj 86 297 tabread Harmonics;
#X obj 198 297 tabread Harmonics;
#X obj 309 297 tabread Harmonics;
#X obj 421 297 tabread Harmonics;
#X msg 48 157 4;
#X msg 160 157 5;
#X msg 271 157 6;
#X msg 383 157 7;
#X msg 67 215 8;
#X msg 179 215 9;
#X msg 290 215 10;
#X msg 402 215 11;
#X msg 86 273 12;
#X msg 198 273 13;
#X msg 309 273 14;
#X msg 421 273 15;
#X obj 129 33 inlet;
#X text 25 11 bang to output;
#X text 126 11 toggle constant output;
#X obj 129 63 tgl 15 0 empty empty empty 17 7 0 10 -262144 -1 -1 1
1;
#X obj 75 57 metro 1;
#X obj 280 33 inlet;
#X text 277 11 reset;
#X msg 416 65 \; Harmonics 0 100 0 0 0 0 0 0 0 0 0 0 0 0 0 0 0, f
23;
#X obj 484 419 tgl 30 0 empty empty empty 17 7 0 10 -262144 -1 -1 1
1;
#X text 394 418 Continuous / Per trigger, f 12;
#X msg 530 420 set \$1;
#X text 28 512 1st only, f 4;
#X obj 26 480 bng 30 250 50 0 empty empty empty 17 7 0 10 -262144 -1
-1;
#X text 31 463 All;
#X msg 529 458 \; Harmonics 0 100 100 100 100 100 100 100 100 100 100
100 100 100 100 100 100, f 12;
#X connect 1 0 60 0;
#X connect 1 0 61 0;
#X connect 2 0 60 0;
#X connect 3 0 4 0;
#X connect 4 0 22 0;
#X connect 4 0 26 0;
#X connect 4 0 27 0;
#X connect 4 0 28 0;
#X connect 4 0 41 0;
#X connect 4 0 42 0;
#X connect 4 0 43 0;
#X connect 4 0 44 0;
#X connect 4 0 45 0;
#X connect 4 0 46 0;
#X connect 4 0 47 0;
#X connect 4 0 48 0;
#X connect 4 0 49 0;
#X connect 4 0 50 0;
#X connect 4 0 51 0;
#X connect 4 0 52 0;
#X connect 21 0 5 0;
#X connect 22 0 21 0;
#X connect 23 0 13 0;
#X connect 24 0 6 0;
#X connect 25 0 14 0;
#X connect 26 0 23 0;
#X connect 27 0 24 0;
#X connect 28 0 25 0;
#X connect 29 0 7 0;
#X connect 30 0 15 0;
#X connect 31 0 8 0;
#X connect 32 0 16 0;
#X connect 33 0 9 0;
#X connect 34 0 17 0;
#X connect 35 0 10 0;
#X connect 36 0 18 0;
#X connect 37 0 11 0;
#X connect 38 0 19 0;
#X connect 39 0 12 0;
#X connect 40 0 20 0;
#X connect 41 0 29 0;
#X connect 42 0 30 0;
#X connect 43 0 31 0;
#X connect 44 0 32 0;
#X connect 45 0 33 0;
#X connect 46 0 34 0;
#X connect 47 0 35 0;
#X connect 48 0 36 0;
#X connect 49 0 37 0;
#X connect 50 0 38 0;
#X connect 51 0 39 0;
#X connect 52 0 40 0;
#X connect 53 0 56 0;
#X connect 56 0 57 0;
#X connect 56 0 63 0;
#X connect 57 0 4 0;
#X connect 58 0 60 0;
#X connect 61 0 56 0;
#X connect 63 0 61 0;
#X connect 65 0 67 0;
#X coords 0 -1 1 1 500 180 2 20 400;
