#N canvas 131 79 450 300 12;
#X obj 18 17 inlet~;
#X obj 66 17 inlet~;
#X obj 114 17 inlet~;
#X obj 163 17 inlet~;
#X obj 50 59 +~;
#X obj 147 59 +~;
#X obj 131 97 +~;
#X obj 212 17 inlet~;
#X obj 260 17 inlet~;
#X obj 308 17 inlet~;
#X obj 357 17 inlet~;
#X obj 244 59 +~;
#X obj 341 59 +~;
#X obj 325 97 +~;
#X obj 310 134 +~;
#X obj 310 166 outlet~;
#X connect 0 0 4 0;
#X connect 1 0 4 1;
#X connect 2 0 5 0;
#X connect 3 0 5 1;
#X connect 4 0 6 0;
#X connect 5 0 6 1;
#X connect 6 0 14 0;
#X connect 7 0 11 0;
#X connect 8 0 11 1;
#X connect 9 0 12 0;
#X connect 10 0 12 1;
#X connect 11 0 13 0;
#X connect 12 0 13 1;
#X connect 13 0 14 1;
#X connect 14 0 15 0;
