#N canvas 633 0 638 628 12;
#X floatatom 24 196 5 0 127 0 - - -, f 5;
#X obj 24 257 mtof;
#X obj 258 287 sinevoice 4;
#X obj 25 348 8sigadd, f 76;
#X obj 69 39 16harmctrl;
#X text 23 176 MIDI;
#X obj 49 444 8sigadd, f 67;
#X obj 24 478 +~;
#X obj 90 499 inlet;
#X text 93 479 MIDI;
#X obj 90 524 ctrlbound 0 127;
#X obj 24 524 outlet~;
#X obj 102 287 sinevoice 2;
#X obj 180 287 sinevoice 3;
#X obj 283 313 sinevoice 5;
#X obj 361 313 sinevoice 6;
#X obj 439 313 sinevoice 7;
#X obj 517 313 sinevoice 8;
#X obj 24 287 sinevoice 1;
#X obj 48 383 sinevoice 9;
#X obj 126 383 sinevoice 10;
#X obj 209 383 sinevoice 11;
#X obj 293 383 sinevoice 12;
#X obj 277 409 sinevoice 13;
#X obj 361 409 sinevoice 14;
#X obj 444 409 sinevoice 15;
#X obj 527 409 sinevoice 16;
#X obj 62 257 bng 15 250 50 0 empty empty empty 17 7 0 10 -262144 -1
-1;
#X text 78 253 Phase reset;
#X obj 25 142 bng 30 250 50 0 empty empty empty 17 7 0 10 -262144 -1
-1;
#X text 23 108 Phase reset, f 5;
#X connect 0 0 1 0;
#X connect 1 0 2 0;
#X connect 1 0 4 0;
#X connect 1 0 12 0;
#X connect 1 0 13 0;
#X connect 1 0 18 0;
#X connect 1 0 19 0;
#X connect 1 0 20 0;
#X connect 1 0 21 0;
#X connect 1 0 22 0;
#X connect 1 0 23 0;
#X connect 1 0 24 0;
#X connect 1 0 25 0;
#X connect 1 0 26 0;
#X connect 2 0 3 3;
#X connect 3 0 7 0;
#X connect 4 0 18 2;
#X connect 4 1 12 2;
#X connect 4 2 13 2;
#X connect 4 3 2 2;
#X connect 4 4 14 2;
#X connect 4 5 15 2;
#X connect 4 6 16 2;
#X connect 4 7 17 2;
#X connect 4 8 19 2;
#X connect 4 9 20 2;
#X connect 4 10 21 2;
#X connect 4 11 22 2;
#X connect 4 12 23 2;
#X connect 4 13 24 2;
#X connect 4 14 25 2;
#X connect 4 15 26 2;
#X connect 6 0 7 1;
#X connect 7 0 11 0;
#X connect 8 0 10 0;
#X connect 10 0 0 0;
#X connect 12 0 3 1;
#X connect 13 0 3 2;
#X connect 14 0 3 4;
#X connect 15 0 3 5;
#X connect 16 0 3 6;
#X connect 17 0 3 7;
#X connect 18 0 3 0;
#X connect 19 0 6 0;
#X connect 20 0 6 1;
#X connect 21 0 6 2;
#X connect 22 0 6 3;
#X connect 23 0 6 4;
#X connect 24 0 6 5;
#X connect 25 0 6 6;
#X connect 26 0 6 7;
#X connect 27 0 18 3;
#X connect 27 0 12 3;
#X connect 27 0 13 3;
#X connect 27 0 2 3;
#X connect 27 0 14 3;
#X connect 27 0 15 3;
#X connect 27 0 16 3;
#X connect 27 0 17 3;
#X connect 27 0 19 3;
#X connect 27 0 20 3;
#X connect 27 0 21 3;
#X connect 27 0 22 3;
#X connect 27 0 23 3;
#X connect 27 0 24 3;
#X connect 27 0 25 3;
#X connect 27 0 26 3;
#X connect 29 0 27 0;
#X coords 0 -1 1 1 550 200 1 20 20;
