#N canvas -7 0 639 628 12;
#X obj 26 145 osc~;
#X obj 140 45 inlet;
#X text 139 20 Harmonic multiplier;
#X obj 26 43 inlet;
#X obj 26 271 outlet~;
#X text 25 18 Pitch in freq;
#X obj 44 81 t b f;
#X obj 273 46 inlet;
#X text 272 21 Volume;
#X obj 56 241 line~;
#X obj 26 241 *~;
#X obj 56 214 pack 0 30;
#X obj 273 77 ctrlbound 0 100;
#X obj 56 187 / 100;
#X obj 26 114 * \$1;
#X obj 384 46 inlet;
#X text 382 22 Phase reset;
#X msg 384 77 0, f 1;
#X connect 0 0 10 0;
#X connect 1 0 6 0;
#X connect 3 0 14 0;
#X connect 6 0 14 0;
#X connect 6 1 14 1;
#X connect 7 0 12 0;
#X connect 9 0 10 1;
#X connect 10 0 4 0;
#X connect 11 0 9 0;
#X connect 12 0 13 0;
#X connect 13 0 11 0;
#X connect 14 0 0 0;
#X connect 15 0 17 0;
#X connect 17 0 0 1;
